<svg width="22" height="22" viewBox="0 0 22 22" fill="none" xmlns="http://www.w3.org/2000/svg">
<path fill-rule="evenodd" clip-rule="evenodd" d="M10.9999 20.1666C16.0627 20.1666 20.1666 16.0627 20.1666 10.9999C20.1666 5.93717 16.0627 1.83325 10.9999 1.83325C5.93717 1.83325 1.83325 5.93717 1.83325 10.9999C1.83325 16.0627 5.93717 20.1666 10.9999 20.1666ZM9.62492 15.575C9.62492 14.7803 10.229 14.2083 10.9917 14.2083C11.7708 14.2083 12.3749 14.7803 12.3749 15.575C12.3749 16.3698 11.7708 16.9583 10.9917 16.9583C10.229 16.9583 9.62492 16.3698 9.62492 15.575ZM10.2409 5.49992C10.1791 5.49998 10.1179 5.51256 10.061 5.5369C10.0042 5.56124 9.95282 5.59684 9.91008 5.64154C9.86735 5.68625 9.8341 5.73914 9.81235 5.79704C9.79059 5.85493 9.78078 5.91663 9.7835 5.97842L10.064 12.3951C10.0692 12.5131 10.1198 12.6246 10.2052 12.7062C10.2906 12.7879 10.4042 12.8334 10.5223 12.8333H11.4784C11.5966 12.8334 11.7102 12.7879 11.7956 12.7062C11.881 12.6246 11.9316 12.5131 11.9368 12.3951L12.2163 5.97842C12.2191 5.91655 12.2092 5.85478 12.1874 5.79682C12.1656 5.73887 12.1323 5.68593 12.0894 5.64121C12.0466 5.59649 11.9951 5.56092 11.9382 5.53663C11.8812 5.51235 11.8199 5.49986 11.758 5.49992H10.2409Z" fill="black"/>
</svg>
