<svg width="41" height="41" viewBox="0 0 41 41" fill="none" xmlns="http://www.w3.org/2000/svg">
<path d="M26.9062 15.5928V7.6875C26.9062 6.14231 25.8825 3.84375 23.0625 3.84375C20.2425 3.84375 19.2188 6.14231 19.2188 7.6875V10.2769L12.8817 16.6562H7.6875C6.27172 16.6562 5.125 17.803 5.125 19.2188V30.75H7.6875V21.7812L23.0625 37.1562L35.875 24.3438L26.9062 15.5928ZM23.0625 6.40625C24.0952 6.40625 24.3284 7.11094 24.3438 7.6875V13.0303L21.7812 10.4678V7.70288C21.7966 7.11094 22.0298 6.40625 23.0625 6.40625ZM23.0625 33.3125L11.5312 21.7812L19.2188 14.0938V21.7812H21.7812V14.0925L32.0312 24.3438L23.0625 33.3125ZM5.125 33.3125H7.6875V35.875H5.125V33.3125Z" fill="#111918"/>
</svg>
