<svg width="64" height="50" viewBox="0 0 64 50" fill="none" xmlns="http://www.w3.org/2000/svg">
<path d="M59.8865 19.7472H10.6766V17.7609C10.6766 16.7936 11.4636 16.0067 12.4309 16.0067H50.5342C53.0493 16.0067 55.0954 13.9605 55.0954 11.4454C55.0954 8.93032 53.0493 6.88414 50.5342 6.88414H11.7993C10.832 6.88414 10.0452 6.09719 10.0452 5.12989V2.18281C10.0452 1.40765 9.4167 0.779297 8.64168 0.779297C7.86667 0.779297 7.23817 1.40765 7.23817 2.18281V5.13003C7.23817 7.64512 9.28421 9.6913 11.7993 9.6913H50.5342C51.5015 9.6913 52.2884 10.4782 52.2884 11.4455C52.2884 12.4128 51.5015 13.1998 50.5342 13.1998H12.4309C9.91579 13.1998 7.86961 15.246 7.86961 17.7611V19.7473H4.1134C1.84519 19.7472 0 21.5925 0 23.8606V45.1074C0 47.3756 1.84519 49.2208 4.1134 49.2208H59.8866C62.1548 49.2208 64.0001 47.3756 64.0001 45.1074V23.8606C64 21.5925 62.1548 19.7472 59.8865 19.7472ZM61.193 45.1074C61.193 45.8279 60.6069 46.4138 59.8865 46.4138H4.1134C3.39312 46.4138 2.80702 45.8277 2.80702 45.1074V23.8606C2.80702 23.1401 3.39312 22.5542 4.1134 22.5542H59.8866C60.607 22.5542 61.1931 23.1403 61.1931 23.8606V45.1074H61.193Z" fill="black"/>
<path d="M43.8589 24.0981H5.75434C4.97932 24.0981 4.35083 24.7265 4.35083 25.5017V43.4666C4.35083 44.2417 4.97932 44.8701 5.75434 44.8701H43.8589C44.6339 44.8701 45.2624 44.2417 45.2624 43.4666V25.5017C45.2624 24.7266 44.6341 24.0981 43.8589 24.0981ZM42.4554 30.0865H39.5173V26.9052H42.4554V30.0865ZM32.9913 30.0865V26.9052H36.7103V30.0865H32.9913ZM30.044 36.0748V32.8935H33.763V36.0748H30.044ZM16.9921 36.0748V32.8935H20.7111V36.0748H16.9921ZM14.1851 32.8935V36.0748H10.8871V32.8935H14.1851ZM23.5181 32.8935H27.237V36.0748H23.5181V32.8935ZM30.1842 30.0865H26.4654V26.9052H30.1842V30.0865ZM23.6583 30.0865H19.9393V26.9052H23.6583V30.0865ZM17.1323 30.0865H13.4133V26.9052H17.1323V30.0865ZM8.08009 36.0748H7.15785V32.8935H8.08009V36.0748ZM17.1323 38.8819V42.0632H13.4133V38.8819H17.1323ZM19.9393 38.8819H30.1842V42.0632H19.9393V38.8819ZM32.9913 38.8819H36.7103V42.0632H32.9913V38.8819ZM36.5702 36.0748V32.8935H42.4555V36.0748H36.5702ZM10.6063 26.9052V30.0865H7.15785V26.9052H10.6063ZM7.15785 38.8819H10.6063V42.0632H7.15785V38.8819ZM39.5174 42.0631V38.8817H42.4555V42.0631H39.5174Z" fill="black"/>
<path d="M58.2457 24.0981H48.8503C48.0753 24.0981 47.4468 24.7265 47.4468 25.5017V43.4666C47.4468 44.2417 48.0753 44.8701 48.8503 44.8701H58.2457C59.0207 44.8701 59.6492 44.2417 59.6492 43.4666V25.5017C59.6492 24.7265 59.0207 24.0981 58.2457 24.0981ZM56.8421 30.0865H54.8851V26.9052H56.8421V30.0865ZM54.8851 32.8935H56.8421V36.0748H54.8851V32.8935ZM52.0781 36.0748H50.2538V32.8935H52.0781V36.0748ZM52.0781 26.9052V30.0865H50.2538V26.9052H52.0781ZM50.2538 38.8819H52.0781V42.0632H50.2538V38.8819ZM54.8851 42.0631V38.8817H56.8421V42.0631H54.8851Z" fill="black"/>
</svg>
