<svg width="22" height="22" viewBox="0 0 22 22" fill="none" xmlns="http://www.w3.org/2000/svg">
<g clip-path="url(#clip0_3600_129)">
<path d="M11 5.5C11.1823 5.5 11.3572 5.57243 11.4861 5.70136C11.6151 5.8303 11.6875 6.00516 11.6875 6.1875V8.25C11.6875 8.43234 11.6151 8.6072 11.4861 8.73614C11.3572 8.86507 11.1823 8.9375 11 8.9375C10.8177 8.9375 10.6428 8.86507 10.5139 8.73614C10.3849 8.6072 10.3125 8.43234 10.3125 8.25V6.1875C10.3125 6.00516 10.3849 5.8303 10.5139 5.70136C10.6428 5.57243 10.8177 5.5 11 5.5ZM5.1315 7.8815C5.26043 7.75261 5.43526 7.68021 5.61756 7.68021C5.79986 7.68021 5.9747 7.75261 6.10363 7.8815L7.36175 9.13825C7.42567 9.20217 7.47638 9.27806 7.51097 9.36157C7.54556 9.44509 7.56337 9.5346 7.56337 9.625C7.56337 9.7154 7.54556 9.80491 7.51097 9.88843C7.47638 9.97194 7.42567 10.0478 7.36175 10.1118C7.29783 10.1757 7.22194 10.2264 7.13843 10.261C7.05491 10.2956 6.9654 10.3134 6.875 10.3134C6.7846 10.3134 6.69509 10.2956 6.61157 10.261C6.52806 10.2264 6.45217 10.1757 6.38825 10.1118L5.1315 8.85363C5.00261 8.7247 4.93021 8.54986 4.93021 8.36756C4.93021 8.18526 5.00261 8.01043 5.1315 7.8815ZM2.75 13.75C2.75 13.5677 2.82243 13.3928 2.95136 13.2639C3.0803 13.1349 3.25516 13.0625 3.4375 13.0625H5.61825C5.80059 13.0625 5.97545 13.1349 6.10439 13.2639C6.23332 13.3928 6.30575 13.5677 6.30575 13.75C6.30575 13.9323 6.23332 14.1072 6.10439 14.2361C5.97545 14.3651 5.80059 14.4375 5.61825 14.4375H3.4375C3.25516 14.4375 3.0803 14.3651 2.95136 14.2361C2.82243 14.1072 2.75 13.9323 2.75 13.75ZM15.8125 13.75C15.8125 13.5677 15.8849 13.3928 16.0139 13.2639C16.1428 13.1349 16.3177 13.0625 16.5 13.0625H18.5625C18.7448 13.0625 18.9197 13.1349 19.0486 13.2639C19.1776 13.3928 19.25 13.5677 19.25 13.75C19.25 13.9323 19.1776 14.1072 19.0486 14.2361C18.9197 14.3651 18.7448 14.4375 18.5625 14.4375H16.5C16.3177 14.4375 16.1428 14.3651 16.0139 14.2361C15.8849 14.1072 15.8125 13.9323 15.8125 13.75ZM16.8492 7.91175C16.754 7.81699 16.6266 7.76155 16.4923 7.75646C16.358 7.75136 16.2268 7.79699 16.1246 7.88425L10.3771 12.8013C10.2432 12.9141 10.1345 13.0538 10.0579 13.2113C9.98141 13.3688 9.93878 13.5406 9.93282 13.7156C9.92687 13.8906 9.95771 14.0649 10.0234 14.2272C10.089 14.3896 10.188 14.5363 10.3139 14.658C10.4398 14.7796 10.5899 14.8735 10.7544 14.9336C10.9189 14.9936 11.0942 15.0184 11.2689 15.0065C11.4436 14.9945 11.6138 14.946 11.7686 14.8641C11.9234 14.7822 12.0592 14.6687 12.1674 14.531L16.8891 8.62262C16.9713 8.5198 17.0126 8.39029 17.0053 8.25888C16.9979 8.12747 16.9424 8.00339 16.8492 7.91037V7.91175Z" fill="black"/>
<path fill-rule="evenodd" clip-rule="evenodd" d="M7.29827e-06 13.7499C0.00144468 12.1491 0.352245 10.5679 1.02792 9.11676C1.70359 7.66557 2.68786 6.37934 3.912 5.34786C5.13614 4.31638 6.57066 3.5645 8.11542 3.14472C9.66017 2.72494 11.2779 2.64737 12.8558 2.91743C14.4336 3.18749 15.9335 3.79867 17.2507 4.7083C18.5679 5.61793 19.6707 6.80409 20.4821 8.18397C21.2935 9.56386 21.794 11.1042 21.9486 12.6975C22.1032 14.2908 21.9082 15.8986 21.3771 17.4088C20.7694 19.1316 18.8403 19.6115 17.3456 19.1275C15.5499 18.5459 13.0281 17.8749 11 17.8749C8.97326 17.8749 6.44876 18.5459 4.65438 19.1275C3.15976 19.6115 1.23063 19.1316 0.622882 17.4088C0.209202 16.2333 -0.0014292 14.996 7.29827e-06 13.7499ZM11 4.12489C9.46052 4.12449 7.94339 4.49338 6.57596 5.2006C5.20853 5.90781 4.03068 6.93272 3.14129 8.1893C2.25189 9.44588 1.67688 10.8975 1.46453 12.4222C1.25218 13.947 1.40867 15.5005 1.92088 16.9523C2.20001 17.7429 3.19001 18.1568 4.23088 17.8185C6.04588 17.2328 8.74226 16.4999 11 16.4999C13.2578 16.4999 15.9555 17.2314 17.7691 17.8199C18.81 18.1568 19.8 17.7429 20.0791 16.9523C20.5913 15.5005 20.7478 13.947 20.5355 12.4222C20.3231 10.8975 19.7481 9.44588 18.8587 8.1893C17.9693 6.93272 16.7915 5.90781 15.4241 5.2006C14.0566 4.49338 12.5395 4.12449 11 4.12489Z" fill="black"/>
</g>
<defs>
<clipPath id="clip0_3600_129">
<rect width="22" height="22" fill="white"/>
</clipPath>
</defs>
</svg>
