<svg width="50" height="25" viewBox="0 0 50 25" fill="none" xmlns="http://www.w3.org/2000/svg">
<path d="M12.5 3.57143C10.132 3.57143 7.86098 4.51211 6.18655 6.18655C4.51211 7.86098 3.57143 10.132 3.57143 12.5C3.57143 14.868 4.51211 17.139 6.18655 18.8135C7.86098 20.4879 10.132 21.4286 12.5 21.4286C14.868 21.4286 17.139 20.4879 18.8135 18.8135C20.4879 17.139 21.4286 14.868 21.4286 12.5C21.4286 10.132 20.4879 7.86098 18.8135 6.18655C17.139 4.51211 14.868 3.57143 12.5 3.57143ZM21.25 3.57143C22.4391 4.73421 23.3835 6.12322 24.0276 7.65663C24.6716 9.19004 25.0022 10.8368 25 12.5C25.0022 14.1632 24.6716 15.81 24.0276 17.3434C23.3835 18.8768 22.4391 20.2658 21.25 21.4286H37.5C39.868 21.4286 42.139 20.4879 43.8135 18.8135C45.4879 17.139 46.4286 14.868 46.4286 12.5C46.4286 10.132 45.4879 7.86098 43.8135 6.18655C42.139 4.51211 39.868 3.57143 37.5 3.57143H21.25ZM12.5 0H37.5C40.8152 0 43.9946 1.31696 46.3388 3.66117C48.683 6.00537 50 9.18479 50 12.5C50 15.8152 48.683 18.9946 46.3388 21.3388C43.9946 23.683 40.8152 25 37.5 25H12.5C9.18479 25 6.00537 23.683 3.66117 21.3388C1.31696 18.9946 0 15.8152 0 12.5C0 9.18479 1.31696 6.00537 3.66117 3.66117C6.00537 1.31696 9.18479 0 12.5 0Z" fill="black"/>
</svg>
