<svg width="19" height="19" viewBox="0 0 19 19" fill="none" xmlns="http://www.w3.org/2000/svg">
<path fill-rule="evenodd" clip-rule="evenodd" d="M9.16665 18.3333C14.2294 18.3333 18.3333 14.2294 18.3333 9.16665C18.3333 4.10392 14.2294 0 9.16665 0C4.10392 0 0 4.10392 0 9.16665C0 14.2294 4.10392 18.3333 9.16665 18.3333ZM7.79167 13.7417C7.79167 12.947 8.39575 12.375 9.15845 12.375C9.93755 12.375 10.5416 12.947 10.5416 13.7417C10.5416 14.5365 9.93755 15.125 9.15845 15.125C8.39575 15.125 7.79167 14.5365 7.79167 13.7417ZM8.40765 3.66667C8.34585 3.66673 8.28465 3.67931 8.22775 3.70365C8.17095 3.72799 8.11957 3.76359 8.07683 3.80829C8.0341 3.853 8.00085 3.90589 7.9791 3.96379C7.95734 4.02168 7.94753 4.08338 7.95025 4.14517L8.23075 10.5618C8.23595 10.6798 8.28655 10.7913 8.37195 10.8729C8.45735 10.9546 8.57095 11.0001 8.68905 11H9.64515C9.76335 11.0001 9.87695 10.9546 9.96235 10.8729C10.0477 10.7913 10.0983 10.6798 10.1035 10.5618L10.383 4.14517C10.3858 4.0833 10.3759 4.02153 10.3541 3.96357C10.3323 3.90562 10.2991 3.85268 10.2562 3.80796C10.2134 3.76324 10.1618 3.72767 10.1049 3.70338C10.0479 3.6791 9.98665 3.66661 9.92475 3.66667H8.40765Z" fill="white"/>
</svg>
