<svg width="31" height="35" viewBox="0 0 31 35" fill="none" xmlns="http://www.w3.org/2000/svg">
<path d="M21.9062 12.5928V4.6875C21.9062 3.14231 20.8825 0.84375 18.0625 0.84375C15.2425 0.84375 14.2188 3.14231 14.2188 4.6875V7.2769L7.8817 13.6562H2.6875C1.27172 13.6562 0.125 14.803 0.125 16.2188V27.75H2.6875V18.7812L18.0625 34.1562L30.875 21.3438L21.9062 12.5928ZM18.0625 3.40625C19.0952 3.40625 19.3284 4.11094 19.3438 4.6875V10.0303L16.7812 7.4678V4.70288C16.7966 4.11094 17.0298 3.40625 18.0625 3.40625ZM18.0625 30.3125L6.5312 18.7812L14.2188 11.0938V18.7812H16.7812V11.0925L27.0312 21.3438L18.0625 30.3125ZM0.125 30.3125H2.6875V32.875H0.125V30.3125Z" fill="white"/>
</svg>
