<svg width="29" height="30" viewBox="0 0 29 30" fill="none" xmlns="http://www.w3.org/2000/svg">
<path d="M14.499 7.162C11.764 7.162 9.03004 6.847 6.37604 6.225C6.10704 6.162 5.94004 5.894 6.00304 5.624C6.06604 5.356 6.32804 5.189 6.60504 5.251C12.398 6.609 18.555 6.438 24.283 4.753C24.553 4.677 24.827 4.826 24.904 5.091C24.982 5.357 24.831 5.634 24.566 5.712C21.295 6.674 17.908 7.162 14.499 7.162Z" fill="white"/>
<path d="M24.424 24.362C24.377 24.362 24.33 24.355 24.282 24.341C17.923 22.47 11.075 22.47 4.716 24.341C4.447 24.416 4.172 24.268 4.095 24.003C4.017 23.737 4.168 23.46 4.433 23.382C10.978 21.456 18.021 21.456 24.566 23.382C24.831 23.46 24.982 23.737 24.904 24.003C24.84 24.222 24.64 24.362 24.424 24.362Z" fill="white"/>
<path d="M13.8881 28.639C13.7901 28.639 13.6931 28.611 13.6061 28.552C8.93908 25.367 6.15308 20.13 6.15308 14.543C6.15308 10.016 7.93408 5.755 11.1701 2.545C11.3671 2.348 11.6841 2.352 11.8771 2.547C12.0721 2.743 12.0701 3.06 11.8751 3.254C8.83008 6.275 7.15308 10.284 7.15308 14.543C7.15308 19.799 9.77608 24.728 14.1711 27.726C14.3991 27.881 14.4571 28.193 14.3021 28.421C14.2041 28.563 14.0471 28.639 13.8881 28.639Z" fill="white"/>
<path d="M15.153 28.639C14.994 28.639 14.837 28.563 14.74 28.421C14.585 28.192 14.643 27.881 14.871 27.726C19.266 24.728 21.889 19.799 21.889 14.543C21.889 9.287 19.266 4.358 14.871 1.36C14.643 1.205 14.585 0.893002 14.74 0.665002C14.896 0.437002 15.208 0.381002 15.435 0.534002C20.102 3.719 22.888 8.956 22.888 14.543C22.888 20.13 20.102 25.367 15.435 28.552C15.349 28.61 15.251 28.639 15.153 28.639Z" fill="white"/>
<path d="M14.499 28.49C14.223 28.49 13.999 28.266 13.999 27.99V1.09601C13.999 0.820008 14.223 0.596008 14.499 0.596008C14.775 0.596008 14.999 0.820008 14.999 1.09601V27.99C14.999 28.267 14.775 28.49 14.499 28.49Z" fill="white"/>
<path d="M28.446 15.043H2.552C2.276 15.043 2.052 14.819 2.052 14.543C2.052 14.267 2.276 14.043 2.552 14.043H28.447C28.723 14.043 28.947 14.267 28.947 14.543C28.947 14.819 28.723 15.043 28.446 15.043Z" fill="white"/>
<path d="M14.499 29.043C6.50402 29.043 -0.000976562 22.538 -0.000976562 14.543C-0.000976562 11.022 1.27702 7.624 3.59902 4.978C3.78102 4.77 4.09602 4.75 4.30502 4.932C4.51202 5.114 4.53202 5.43 4.35102 5.638C2.19002 8.101 0.999024 11.264 0.999024 14.543C0.999024 21.987 7.05502 28.043 14.499 28.043C21.943 28.043 27.999 21.987 27.999 14.543C27.999 7.099 21.943 1.043 14.499 1.043C11.421 1.043 8.52302 2.051 6.12002 3.958C5.90402 4.13 5.59002 4.095 5.41802 3.877C5.24602 3.661 5.28202 3.347 5.49902 3.175C8.08002 1.126 11.192 0.0429993 14.499 0.0429993C22.494 0.0429993 28.999 6.548 28.999 14.543C28.999 22.538 22.494 29.043 14.499 29.043Z" fill="white"/>
</svg>
