<svg width="38" height="29" viewBox="0 0 38 29" fill="none" xmlns="http://www.w3.org/2000/svg">
<g clip-path="url(#clip0_3746_10)">
<path d="M35.5576 11.2622H6.33926V10.0828C6.33926 9.50851 6.80651 9.04126 7.38084 9.04126H30.0047C31.498 9.04126 32.713 7.82634 32.713 6.33301C32.713 4.83967 31.498 3.62476 30.0047 3.62476H7.00584C6.43151 3.62476 5.96434 3.15751 5.96434 2.58317V0.833335C5.96434 0.373084 5.59117 0 5.13101 0C4.67084 0 4.29767 0.373084 4.29767 0.833335V2.58325C4.29767 4.07659 5.51251 5.29151 7.00584 5.29151H30.0047C30.579 5.29151 31.0463 5.75876 31.0463 6.33309C31.0463 6.90743 30.579 7.37468 30.0047 7.37468H7.38084C5.88751 7.37468 4.67259 8.5896 4.67259 10.0829V11.2623H2.44234C1.09558 11.2622 0 12.3579 0 13.7045V26.3199C0 27.6666 1.09558 28.7622 2.44234 28.7622H35.5577C36.9045 28.7622 38.0001 27.6666 38.0001 26.3199V13.7045C38.0001 12.3579 36.9045 11.2622 35.5576 11.2622ZM36.3334 26.3199C36.3334 26.7476 35.9854 27.0955 35.5576 27.0955H2.44234C2.01467 27.0955 1.66667 26.7475 1.66667 26.3199V13.7045C1.66667 13.2768 2.01467 12.9289 2.44234 12.9289H35.5577C35.9855 12.9289 36.3335 13.2769 36.3335 13.7045L36.3334 26.3199Z" fill="white"/>
<path d="M26.0413 13.8456H3.41671C2.95654 13.8456 2.58337 14.2187 2.58337 14.6789V25.3456C2.58337 25.8058 2.95654 26.1789 3.41671 26.1789H26.0413C26.5015 26.1789 26.8747 25.8058 26.8747 25.3456V14.6789C26.8747 14.2187 26.5016 13.8456 26.0413 13.8456ZM25.208 17.4012H23.4635V15.5123H25.208V17.4012ZM19.5886 17.4012V15.5123H21.7968V17.4012H19.5886ZM17.8387 20.9568V19.0678H20.0469V20.9568H17.8387ZM10.0891 20.9568V19.0678H12.2973V20.9568H10.0891ZM8.42247 19.0678V20.9568H6.4643V19.0678H8.42247ZM13.964 19.0678H16.1721V20.9568H13.964V19.0678ZM17.922 17.4012H15.7139V15.5123H17.922V17.4012ZM14.0472 17.4012H11.8391V15.5123H14.0472V17.4012ZM10.1724 17.4012H7.96422V15.5123H10.1724V17.4012ZM4.79763 20.9568H4.25004V19.0678H4.79763V20.9568ZM10.1724 22.6234V24.5123H7.96422V22.6234H10.1724ZM11.8391 22.6234H17.922V24.5123H11.8391V22.6234ZM19.5886 22.6234H21.7968V24.5123H19.5886V22.6234ZM21.7137 20.9568V19.0678H25.2081V20.9568H21.7137ZM6.29755 15.5123V17.4012H4.25004V15.5123H6.29755ZM4.25004 22.6234H6.29755V24.5123H4.25004V22.6234ZM23.4636 24.5123V22.6233H25.2081V24.5123H23.4636Z" fill="white"/>
<path d="M34.5834 13.8456H29.0048C28.5447 13.8456 28.1715 14.2187 28.1715 14.6789V25.3456C28.1715 25.8058 28.5447 26.1789 29.0048 26.1789H34.5834C35.0435 26.1789 35.4167 25.8058 35.4167 25.3456V14.6789C35.4167 14.2187 35.0435 13.8456 34.5834 13.8456ZM33.75 17.4012H32.588V15.5123H33.75V17.4012ZM32.588 19.0678H33.75V20.9568H32.588V19.0678ZM30.9213 20.9568H29.8382V19.0678H30.9213V20.9568ZM30.9213 15.5123V17.4012H29.8382V15.5123H30.9213ZM29.8382 22.6234H30.9213V24.5123H29.8382V22.6234ZM32.588 24.5123V22.6233H33.75V24.5123H32.588Z" fill="white"/>
</g>
<defs>
<clipPath id="clip0_3746_10">
<rect width="38" height="29" fill="white"/>
</clipPath>
</defs>
</svg>
