<svg width="50" height="25" viewBox="0 0 50 25" fill="none" xmlns="http://www.w3.org/2000/svg">
<path d="M12.5 0C9.18479 0 6.00537 1.31696 3.66117 3.66117C1.31696 6.00537 0 9.18479 0 12.5C0 15.8152 1.31696 18.9946 3.66117 21.3388C6.00537 23.683 9.18479 25 12.5 25H37.5C40.8152 25 43.9946 23.683 46.3388 21.3388C48.683 18.9946 50 15.8152 50 12.5C50 9.18479 48.683 6.00537 46.3388 3.66117C43.9946 1.31696 40.8152 0 37.5 0H12.5ZM37.5 21.4286C35.132 21.4286 32.861 20.4879 31.1865 18.8135C29.5121 17.139 28.5714 14.868 28.5714 12.5C28.5714 10.132 29.5121 7.86098 31.1865 6.18655C32.861 4.51211 35.132 3.57143 37.5 3.57143C39.868 3.57143 42.139 4.51211 43.8135 6.18655C45.4879 7.86098 46.4286 10.132 46.4286 12.5C46.4286 14.868 45.4879 17.139 43.8135 18.8135C42.139 20.4879 39.868 21.4286 37.5 21.4286Z" fill="white"/>
</svg>
