<svg width="22" height="22" viewBox="0 0 22 22" fill="none" xmlns="http://www.w3.org/2000/svg">
<g clip-path="url(#clip0_3746_27)">
<mask id="mask0_3746_27" style="mask-type:luminance" maskUnits="userSpaceOnUse" x="0" y="0" width="22" height="22">
<path d="M22 0H0V22H22V0Z" fill="white"/>
</mask>
<g mask="url(#mask0_3746_27)">
<path d="M10.9876 21.8544C4.99569 21.8544 0.12085 16.9796 0.12085 10.9876C0.12085 4.99569 4.99569 0.12085 10.9876 0.12085C16.9796 0.12085 21.8544 4.99569 21.8544 10.9876C21.8544 16.9796 16.9796 21.8544 10.9876 21.8544ZM10.9876 2.29421C6.19394 2.29421 2.29421 6.19394 2.29421 10.9876C2.29421 15.7814 6.19394 19.6811 10.9876 19.6811C15.7814 19.6811 19.6811 15.7814 19.6811 10.9876C19.6811 6.19394 15.7814 2.29421 10.9876 2.29421Z" fill="white"/>
<path d="M16.0759 9.90106H12.0742V5.89942C12.0742 5.29934 11.5876 4.81274 10.9876 4.81274C10.3875 4.81274 9.90088 5.29934 9.90088 5.89942V10.9877C9.90088 11.5878 10.3875 12.0744 10.9876 12.0744H16.0759C16.676 12.0744 17.1626 11.5878 17.1626 10.9877C17.1626 10.3877 16.6762 9.90106 16.0759 9.90106Z" fill="white"/>
</g>
</g>
<defs>
<clipPath id="clip0_3746_27">
<rect width="22" height="22" fill="white"/>
</clipPath>
</defs>
</svg>
